<svg xmlns="http://www.w3.org/2000/svg" viewBox="0 0 512 512" width="512" height="512">
  <!-- Background circle -->
  <circle cx="256" cy="256" r="256" fill="#4285F4"/>
  
  <!-- Google G shape -->
  <path d="M 256 128 C 185.6 128 128 185.6 128 256 C 128 326.4 185.6 384 256 384 C 326.4 384 384 326.4 384 256 C 384 185.6 326.4 128 256 128 Z M 256 352 C 201.6 352 160 310.4 160 256 C 160 201.6 201.6 160 256 160 C 310.4 160 352 201.6 352 256 C 352 310.4 310.4 352 256 352 Z" fill="white" opacity="0.1"/>
  
  <!-- G letter with Google colors -->
  <!-- Blue section (top-left) -->
  <path d="M 256 160 L 256 256 L 320 256 L 320 192 L 256 192 L 256 160 Z" fill="#4285F4"/>
  
  <!-- Red section (top-right) -->
  <path d="M 320 160 L 352 160 L 352 224 L 320 224 L 320 192 L 352 192 L 352 160 Z" fill="#EA4335"/>
  
  <!-- Yellow section (bottom-left) -->
  <path d="M 256 256 L 256 320 L 320 320 L 320 288 L 288 288 L 288 256 L 256 256 Z" fill="#FBBC05"/>
  
  <!-- Green section (bottom-right) -->
  <path d="M 320 256 L 352 256 L 352 320 L 320 320 L 320 288 L 352 288 L 352 256 Z" fill="#34A853"/>
  
  <!-- White G shape overlay -->
  <path d="M 256 160 C 201.6 160 160 201.6 160 256 C 160 310.4 201.6 352 256 352 C 310.4 352 352 310.4 352 256 L 352 224 L 320 224 L 320 256 C 320 293.6 293.6 320 256 320 C 218.4 320 192 293.6 192 256 C 192 218.4 218.4 192 256 192 L 256 160 Z" fill="white"/>
  
  <!-- Inner cutout for G -->
  <path d="M 256 224 C 241.6 224 230.4 235.2 230.4 249.6 C 230.4 264 241.6 275.2 256 275.2 C 270.4 275.2 281.6 264 281.6 249.6 C 281.6 235.2 270.4 224 256 224 Z" fill="#4285F4"/>
</svg>